<svg xmlns="http://www.w3.org/2000/svg" viewBox="0 0 512 512">
  <path fill="#325763" d="M306.1 5.82h-33.4v40.5c6.67 17.12 21.14 46.06 33.4 70.55V5.82z"/>
  <path fill="#6B8F9C" d="M239.3 5.82h-33.38v112.16c12.24-18.92 24.48-50.08 33.4-71.65V5.83z"/>
  <path fill="#325763" d="M349.84 361.2c-13.7 0-18.15-.17-33.4-.17l-.05 145.13h33.3l.07-144.96c-.1 0-.74 0 0 0zm-21.37-143c-.07 13.93.75 69.9.75 85.02l64.46 54.02v70.1h33.4V341.6l-98.6-123.4z"/>
  <path fill="#6B8F9C" d="M162.14 361.2l.07 144.98h33.4V361.4c-13.7 0-22.4-.2-33.4-.2zm29.54-159.25L84.93 341.6v85.73h33.4v-70.1l73.73-60.44c0-16.3-.3-81-.38-94.9z"/>
  <path fill="#325763" d="M427.07 155.03V69.3h-33.4v70.08L370.07 160l-.03 42.7"/>
  <path fill="#6B8F9C" d="M118.32 139.38v-70.1h-33.4v85.75l57.26 47.68-.26-42.7"/>
  <path fill="#F6D76F" d="M451.27 243.52L335.64 201.2l34.44 92.93 57 47.47c29.86 0 24.2-64.83 24.2-98.08z"/>
  <path fill="#FAE8AC" d="M493.35 262.02L370.08 160l-27.26 28.73 27.26 38.33 50.35 41.6c21.97 18.3 24.95 50.95 6.64 72.94 21.97 18.3 54.63 15.32 72.94-6.65 18.3-21.98 15.4-54.62-6.6-72.93zm-321.7-79.72L54.7 266.76c-21.96 18.3-20.2 66.7 30.23 74.84l57-47.48 29.73-111.8z"/>
  <path fill="#FDF3D3" d="M91.58 268.66l50.34-41.6 31.25-34.55-31.25-32.5L18.65 262.1C-3.33 280.38-6.3 313 12 334.98c18.3 21.97 50.96 24.94 72.93 6.64-18.3-21.97-15.33-54.62 6.64-72.93z"/>
  <path fill="#05232E" d="M202.64 329.67l167.44-35.54v-67.06l-167.44-31.92"/>
  <path fill="#FBB071" d="M197.73 227.07h172.35V160l-172.35-49.5"/>
  <path fill="#05232E" d="M370.08 160c0-45.44-25.96-84.7-64-103.33-10.32-5.07-21.55-8.6-33.38-10.34-5.45-.8-11.02-1.2-16.7-1.2L195.46 160h174.62z"/>
  <path fill="#FBB071" d="M198.86 294.13l23.43 95.62 127.5-28.55c5.84-8.52 10.7-18.1 14.12-28.67 3.83-11.65 6-24.48 6.07-38.4H198.8z"/>
  <path fill="#05232E" d="M256 361.2s-10.66 39.5-16.7 60.5v50.48h33.4v-50.5c11.62-5.2 27.84-13.64 43.74-25.9 12-9.27 23.85-20.72 33.4-34.58H256z"/>
  <path fill="#325763" d="M256 361.03c-6.5-20.78-16.7-39.3-46.18-39.3-47.23 0-47.67 39.47-47.68 39.47 9.56 13.86 21.4 25.3 33.4 34.57 15.92 12.27 32.14 20.72 43.76 25.93 10.07 4.5 16.7 6.57 16.7 6.57v-67.24z"/>
  <path fill="#F6D76F" d="M256 361.2l.34-67-55.2-34.8-59.22 34.73c.07 13.92 2.24 26.75 6.07 38.4 3.4 10.55 8.2 20.15 14.1 28.67H256z"/>
  <path fill="#325763" d="M141.92 227.07v67.06H256V226.9l-52.23-36.66"/>
  <path fill="#F6D76F" d="M141.92 227.07H256V160l-51.85-47.22L141.92 160"/>
  <path fill="#325763" d="M256 45.12c-5.67 0-11.25.42-16.7 1.2-11.83 1.74-23.05 5.28-33.38 10.34-38.04 18.64-64 57.9-64 103.34H256V45.12z"/>
</svg>